<?xml version="1.0" encoding="UTF-8" standalone="no"?>
<!-- Created with Inkscape (http://www.inkscape.org/) -->

<svg
   width="300"
   height="300"
   viewBox="0 0 79.37472 79.37512"
   version="1.1"
   id="svg5"
   inkscape:version="1.2.1 (9c6d41e410, 2022-07-14)"
   sodipodi:docname="logo.svg"
   inkscape:export-filename="logo.png"
   inkscape:export-xdpi="96"
   inkscape:export-ydpi="96"
   xmlns:inkscape="http://www.inkscape.org/namespaces/inkscape"
   xmlns:sodipodi="http://sodipodi.sourceforge.net/DTD/sodipodi-0.dtd"
   xmlns="http://www.w3.org/2000/svg"
   xmlns:svg="http://www.w3.org/2000/svg">
  <sodipodi:namedview
     id="namedview7"
     pagecolor="#ffffff"
     bordercolor="#000000"
     borderopacity="0.25"
     inkscape:showpageshadow="2"
     inkscape:pageopacity="0.0"
     inkscape:pagecheckerboard="0"
     inkscape:deskcolor="#d1d1d1"
     inkscape:document-units="mm"
     showgrid="false"
     inkscape:zoom="1.4912878"
     inkscape:cx="78.455679"
     inkscape:cy="117.68352"
     inkscape:window-width="1952"
     inkscape:window-height="988"
     inkscape:window-x="3"
     inkscape:window-y="975"
     inkscape:window-maximized="0"
     inkscape:current-layer="g5673" />
  <defs
     id="defs2" />
  <g
     inkscape:label="Слой 1"
     inkscape:groupmode="layer"
     id="layer1">
    <g
       id="g5673"
       transform="matrix(1.4394082,0,0,1.4394082,-51.945558,21.165198)"
       inkscape:label="logo">
      <g
         aria-label="Тульский
Ритуал"
         id="text3694"
         style="font-size:12.7px;line-height:1;font-family:Arsenal;-inkscape-font-specification:Arsenal;text-align:center;text-anchor:middle;stroke-width:0.264584">
        <path
           d="m 42.501932,22.707287 v -7.6454 h -2.3495 v -0.6096 h 5.6769 v 0.6096 h -2.3622 v 7.6454 z"
           id="path6187" />
        <path
           d="m 46.883437,26.009287 q -0.2286,0 -0.3937,-0.0381 -0.1651,-0.0381 -0.254,-0.0762 -0.0889,-0.0381 -0.1143,-0.0508 l 0.1016,-0.5842 q 0.0381,0.0254 0.1905,0.0635 0.1524,0.0508 0.3302,0.0508 0.5842,0 0.9779,-0.635 0.3937,-0.6223 0.8763,-1.9558 l -2.4892,-6.4262 h 1.0922 l 1.8796,5.3086 1.7018,-5.3086 h 0.6731 l -2.1971,6.4516 q -0.5461,1.5621 -1.0795,2.3749 -0.5207,0.8255 -1.2954,0.8255 z"
           id="path6189" />
        <path
           d="m 51.887229,22.821587 q -0.1143,0 -0.1778,-0.0127 l 0.0381,-0.6223 h 0.0635 q 0.7747,0 1.1684,-1.4605 0.4064,-1.4732 0.4064,-4.3688 h 3.3655 v 6.35 h -0.9271 v -5.7531 h -1.7907 q -0.0381,2.8321 -0.5842,4.3561 -0.5334,1.5113 -1.5621,1.5113 z"
           id="path6191" />
        <path
           d="m 58.656331,16.357287 h 0.9144 v 2.4003 h 0.9906 q 1.1557,0 1.8288,0.4572 0.6731,0.4445 0.6731,1.4478 0,2.0447 -2.4765,2.0447 h -1.9304 z m 1.905,5.842 q 0.7493,0 1.143,-0.3556 0.3937,-0.3556 0.3937,-1.1811 0,-0.7747 -0.4445,-1.0922 -0.4318,-0.3175 -1.1176,-0.3175 h -0.9652 v 2.9464 z"
           id="path6193" />
        <path
           d="m 66.682737,22.834287 q -1.3208,0 -2.032,-0.8128 -0.7112,-0.8128 -0.7112,-2.4257 0,-1.6256 0.6985,-2.4892 0.7112,-0.8763 2.0701,-0.8763 0.4445,0 0.8382,0.127 0.3937,0.1143 0.6604,0.2667 0.2794,0.1397 0.2794,0.1524 l -0.1143,0.5207 q -0.0508,-0.0381 -0.2794,-0.1524 -0.2159,-0.127 -0.5715,-0.2413 -0.3429,-0.1143 -0.7112,-0.1143 -0.9779,0 -1.4351,0.6477 -0.4572,0.6477 -0.4572,2.1463 0,1.4478 0.4826,2.0701 0.4826,0.6223 1.3589,0.6223 0.4953,0 0.8382,-0.1778 0.3556,-0.1778 0.5461,-0.3683 0.1905,-0.2032 0.1905,-0.2413 l 0.4064,0.2667 q 0,0.0508 -0.2286,0.3302 -0.2286,0.2667 -0.6858,0.508 -0.4572,0.2413 -1.143,0.2413 z"
           id="path6195" />
        <path
           d="m 69.794242,22.707287 v -6.35 h 0.9144 v 2.9083 l 0.7874,-0.4318 1.8288,-2.4765 h 0.6477 l -1.8796,2.6035 2.2606,3.7465 h -1.0668 l -1.8796,-3.1877 -0.6985,0.3302 v 2.8575 z"
           id="path6197" />
        <path
           d="m 75.585433,22.707287 v -6.35 h 0.9144 v 5.0673 l 3.0988,-5.0673 h 0.8255 v 6.35 h -0.9271 v -5.207 l -3.2004,5.207 z"
           id="path6199" />
        <path
           d="m 82.329135,22.707287 v -6.35 h 0.9144 v 5.0673 l 3.0988,-5.0673 h 0.8255 v 6.35 h -0.9271 v -5.207 l -3.2004,5.207 z m 2.4384,-7.3152 q -0.7366,0 -1.143,-0.2794 -0.3937,-0.2794 -0.5207,-0.5715 -0.127,-0.3048 -0.127,-0.4064 l 0.762,-0.0762 v 0.0635 q 0,0.0254 0.0127,0.127 0.0254,0.0889 0.0762,0.1905 0.2667,0.4572 0.9398,0.4572 0.7493,0 0.9652,-0.4953 0.0508,-0.1016 0.0635,-0.1778 0.0127,-0.0762 0.0127,-0.1016 v -0.0635 l 0.762,0.0762 q 0,0.1016 -0.127,0.4064 -0.127,0.2921 -0.5334,0.5715 -0.3937,0.2794 -1.143,0.2794 z"
           id="path6201" />
        <path
           d="m 47.23904,27.152287 h 1.9812 q 1.27,0 1.9685,0.6604 0.7112,0.6604 0.7112,1.9558 0,0.9652 -0.381,1.5875 -0.381,0.6096 -0.9906,0.889 -0.5969,0.2667 -1.2827,0.2667 h -1.0414 v 2.8956 h -0.9652 z m 1.8669,4.826 q 1.778,0 1.778,-2.1717 0,-1.0668 -0.4572,-1.5748 -0.4572,-0.5207 -1.3081,-0.5207 h -0.9144 v 4.2672 z"
           id="path6203" />
        <path
           d="m 53.296944,35.407287 v -6.35 h 0.9144 v 5.0673 l 3.0988,-5.0673 h 0.8255 v 6.35 h -0.9271 v -5.207 l -3.2004,5.207 z"
           id="path6205" />
        <path
           d="m 61.234445,35.407287 v -5.7531 h -1.9304 v -0.5969 h 4.7752 l -0.0127,0.5969 h -1.9177 v 5.7531 z"
           id="path6207" />
        <path
           d="m 65.260343,38.709287 q -0.2286,0 -0.3937,-0.0381 -0.1651,-0.0381 -0.254,-0.0762 -0.0889,-0.0381 -0.1143,-0.0508 l 0.1016,-0.5842 q 0.0381,0.0254 0.1905,0.0635 0.1524,0.0508 0.3302,0.0508 0.5842,0 0.9779,-0.635 0.3937,-0.6223 0.8763,-1.9558 l -2.4892,-6.4262 h 1.0922 l 1.8796,5.3086 1.7018,-5.3086 h 0.6731 l -2.1971,6.4516 q -0.5461,1.5621 -1.0795,2.3749 -0.5207,0.8255 -1.2954,0.8255 z"
           id="path6209" />
        <path
           d="m 72.258035,35.534287 q -0.8382,0 -1.3462,-0.4064 -0.508,-0.4191 -0.508,-1.1557 0,-1.8669 3.5941,-2.2479 v -0.6731 q 0,-0.9017 -0.2921,-1.2319 -0.2921,-0.3302 -1.0287,-0.3302 -0.3302,0 -0.6731,0.127 -0.3429,0.1143 -0.5842,0.254 -0.2286,0.127 -0.2921,0.1651 l -0.1016,-0.5207 q 0.0635,-0.0508 0.3175,-0.1905 0.2667,-0.1397 0.6604,-0.2667 0.4064,-0.127 0.8128,-0.127 1.0922,0 1.6002,0.4572 0.508,0.4572 0.508,1.6129 v 3.1115 q 0,0.508 0.0889,0.6858 0.1016,0.1778 0.2413,0.1778 0.1143,0 0.2794,-0.0381 0.1651,-0.0508 0.2159,-0.0762 l 0.0381,0.4318 q -0.1016,0.0381 -0.4318,0.1397 -0.3302,0.1016 -0.5588,0.1016 -0.3302,0 -0.508,-0.2032 -0.1778,-0.2159 -0.2159,-0.7493 h -0.0127 q 0,0.0508 -0.2032,0.2921 -0.2032,0.2413 -0.6096,0.4572 -0.3937,0.2032 -0.9906,0.2032 z m 0.2794,-0.5588 q 0.4572,0 0.7874,-0.2032 0.3302,-0.2032 0.4953,-0.4445 0.1778,-0.2413 0.1778,-0.2794 v -1.8542 q -1.1557,0.127 -1.905,0.4953 -0.7366,0.3683 -0.7366,1.1684 0,0.5461 0.3175,0.8382 0.3175,0.2794 0.8636,0.2794 z"
           id="path6211" />
        <path
           d="m 76.322027,35.521587 q -0.1143,0 -0.1778,-0.0127 l 0.0381,-0.6223 h 0.0635 q 0.7747,0 1.1684,-1.4605 0.4064,-1.4732 0.4064,-4.3688 h 3.365499 v 6.35 h -0.9271 v -5.7531 h -1.790699 q -0.0381,2.8321 -0.5842,4.3561 -0.5334,1.5113 -1.5621,1.5113 z"
           id="path6213" />
      </g>
      <g
         id="g5612"
         transform="matrix(0.74919913,0,0,0.74919913,46.960014,-14.062598)">
        <path
           id="path28"
           style="fill:none;stroke:#000000;stroke-width:0.487675;stroke-linecap:round;stroke-linejoin:round;stroke-miterlimit:10;stroke-dasharray:none;stroke-opacity:1"
           d="M 18.265277,26.963937 C 17.971045,26.468782 17.722981,25.97249 17.474753,25.476035 16.960254,24.446873 16.172817,23.549547 15.561759,22.574356 14.876247,21.480172 14.253971,20.346485 13.698345,19.1811 13.065016,17.852343 12.518167,16.482132 12.06349,15.082337 11.620191,13.717817 11.442351,12.210732 10.83373,10.910261 10.387506,9.9576645 9.6246168,9.1806327 9.1879831,8.2085299 9.1200376,8.0573499 9.0836183,7.8606539 9.0481827,7.7224786 8.4906047,8.2719284 8.5393734,9.198514 8.5887911,9.9186504 c 0.072661,1.0550086 0.2160401,2.0628746 0.1755631,3.1292616 -0.110703,2.914519 -0.7921498,6.500408 1.5833248,8.741771" />
        <path
           id="path30"
           style="fill:none;stroke:#000000;stroke-width:0.487675;stroke-linecap:round;stroke-linejoin:round;stroke-miterlimit:10;stroke-dasharray:none;stroke-opacity:1"
           d="m 18.160751,26.993035 c -2.215516,0.146302 -3.519076,-2.124972 -4.812721,-3.537447 -0.701929,-0.766302 -1.546261,-1.457666 -2.605171,-1.615999 -1.0177804,-0.152317 -2.0464541,0.19816 -2.8135705,0.87148 -0.4527264,0.397131 -0.7515092,0.877492 -1.0398898,1.398169 -0.3665699,0.66194 -0.8401046,0.829539 -1.4381596,1.225858 0.7128221,0.132973 1.4586421,-0.0075 2.16236,0.171987 1.6707818,0.589439 3.1598219,1.706381 3.5322449,3.567683 0.496292,2.233723 1.240975,4.095186 2.605983,5.832616 1.613236,1.737268 3.846958,2.605983 6.204877,2.233723 4.132411,-0.652511 9.487268,-3.382365 13.481343,-0.957309" />
        <path
           id="path32"
           style="fill:none;stroke:#000000;stroke-width:0.487675;stroke-linecap:round;stroke-linejoin:round;stroke-miterlimit:10;stroke-dasharray:none;stroke-opacity:1"
           d="m 23.141885,33.247167 c 1.530492,-0.07721 3.391956,-0.449476 4.012281,-2.062548 0.12419,-0.496455 -0.248066,-1.365172 -0.992586,-1.117106 -0.372422,0.124191 -0.372422,0.744683 0.124026,1.117106 0.620488,0.37226 1.365008,0.37226 1.985659,0.248064 3.785023,-0.756875 5.903167,-5.839119 6.411976,-9.219695 0.167436,-1.121495 0.38364,-2.328983 0.160935,-3.457306 -0.31374,-1.587389 -2.155533,-1.519764 -3.008968,-0.454839 -0.172313,0.214903 -0.315365,0.477598 -0.289355,0.751998 0.180441,1.877069 3.192658,-1.353304 3.495019,-1.750273 0.755899,-0.993886 1.305348,-2.148705 1.817409,-3.282067 1.454903,-3.215904 2.548925,-6.9515101 2.209177,-10.5099263 -0.04552,-0.4827998 -0.339748,-2.2611954 -1.159046,-1.7214987 -0.908705,0.5982159 -1.448401,1.5069214 -2.10839,2.3424739 -2.12302,2.6903526 -4.829627,4.8296276 -7.158123,7.3281611 -2.490078,2.673444 -4.508249,5.861063 -5.900892,9.237251 -0.899763,2.181217 -1.675332,5.768244 -4.465983,6.285832" />
      </g>
    </g>
  </g>
</svg>
